<?xml version="1.0" standalone="no"?>
<!DOCTYPE svg PUBLIC "-//W3C//DTD SVG 20010904//EN"
 "http://www.w3.org/TR/2001/REC-SVG-20010904/DTD/svg10.dtd">
<svg version="1.0" xmlns="http://www.w3.org/2000/svg"
 width="700.000000pt" height="700.000000pt" viewBox="0 0 700.000000 700.000000"
 preserveAspectRatio="xMidYMid meet">
<g transform="translate(0.000000,700.000000) scale(0.100000,-0.100000)"
fill="#000000" stroke="none">
<path d="M3367 6450 c-32 -12 -77 -32 -100 -47 -49 -30 -2987 -2962 -3018
-3011 -12 -19 -23 -57 -26 -92 -8 -81 27 -155 94 -199 26 -17 54 -32 62 -32 9
-1 31 -2 50 -4 18 -1 52 2 75 8 37 9 188 156 1519 1486 l1477 1476 1468 -1467
c807 -806 1483 -1474 1502 -1484 23 -12 56 -18 96 -18 127 1 221 103 211 230
-2 33 -11 71 -18 85 -8 13 -250 262 -539 552 -289 290 -526 530 -528 531 -2 2
-4 341 -5 752 -2 713 -3 751 -21 784 -25 46 -69 88 -114 108 -49 20 -512 26
-580 6 -63 -18 -111 -59 -137 -118 -22 -50 -23 -59 -21 -349 0 -163 -1 -297
-4 -297 -2 0 -241 235 -530 523 -545 542 -563 558 -670 585 -68 17 -181 13
-243 -8z"/>
<path d="M2188 4247 l-1313 -1313 1 -955 c0 -525 4 -974 8 -998 46 -277 290
-506 572 -538 38 -4 971 -8 2074 -7 1893 0 2009 1 2080 18 271 65 473 285 508
551 4 33 7 481 7 995 l0 935 -1312 1312 -1312 1312 -1313 -1312z"/>
</g>
</svg>
